<svg width="88" height="88" viewBox="0 0 88 88" fill="none" xmlns="http://www.w3.org/2000/svg">
<path d="M13.0879 78.2898L6.20947 1.14197H81.7905L74.9045 78.2781L43.9539 86.8581L13.0879 78.2898Z" fill="#E44D26"/>
<path d="M44 80.3L69.0099 73.3658L74.8942 7.44971H44V80.3Z" fill="#F16529"/>
<path d="M44 36.0629H31.4792L30.6144 26.3732H44V16.9119H20.2737L20.5006 19.4501L22.8257 45.5249H44V36.0629ZM44 60.6362L43.9581 60.6479L33.4207 57.8016L32.7477 50.2563H23.2485L24.574 65.1125L43.9567 70.4929L44 70.4812V60.6362Z" fill="#EBEBEB"/>
<path d="M43.967 36.0629V45.5249H55.6181L54.5202 57.7961L43.967 60.6444V70.4887L63.3649 65.1125L63.5072 63.5141L65.7305 38.6039L65.9609 36.0629H63.4116H43.967ZM43.967 16.9119V26.3732H66.8223L67.012 24.2475L67.4438 19.4501L67.67 16.9119H43.967Z" fill="white"/>
</svg>
