<svg width="88" height="88" viewBox="0 0 88 88" fill="none" xmlns="http://www.w3.org/2000/svg">
<path d="M12.9346 78.4595L6.02246 0.929443H81.9775L75.0585 78.4478L43.9539 87.0711L12.9346 78.4595Z" fill="#1572B6"/>
<path d="M44.0007 80.4802L69.135 73.5117L75.0482 7.26831H44.0007V80.4802Z" fill="#33A9DC"/>
<path d="M44.0007 35.3574H56.5834L57.4524 25.6204H44.0007V16.1116H67.8446L67.6164 18.6629L65.2789 44.8663H44.0007V35.3574Z" fill="white"/>
<path d="M44.0572 60.0525L44.0152 60.0648L33.4257 57.2055L32.7485 49.6217H23.2046L24.5363 64.5521L44.0138 69.958L44.0572 69.9456V60.0525Z" fill="#EBEBEB"/>
<path d="M55.7749 44.4641L54.6295 57.198L44.0242 60.0607V69.9539L63.5175 64.5515L63.6605 62.9448L65.3147 44.4641H55.7749Z" fill="white"/>
<path d="M44.033 16.1116V25.6204H21.065L20.8746 23.4836L20.4414 18.6629L20.2139 16.1116H44.033ZM44.0007 35.3588V44.8676H33.5445L33.3541 42.7309L32.9202 37.9101L32.6934 35.3588H44.0007Z" fill="#EBEBEB"/>
</svg>
