<svg width="88" height="88" viewBox="0 0 88 88" fill="none" xmlns="http://www.w3.org/2000/svg">
<path d="M43.9999 51.8375C48.3284 51.8375 51.8374 48.3285 51.8374 44C51.8374 39.6714 48.3284 36.1625 43.9999 36.1625C39.6713 36.1625 36.1624 39.6714 36.1624 44C36.1624 48.3285 39.6713 51.8375 43.9999 51.8375Z" fill="#61DAFB"/>
<path d="M73.7687 31.075C72.2562 30.525 70.6749 29.975 69.0249 29.4937C69.4374 27.8437 69.7812 26.1937 70.0562 24.6125C71.4999 15.5375 69.9187 9.14373 65.5187 6.66873C64.2124 5.91248 62.7687 5.56873 61.1187 5.56873C56.3062 5.56873 50.1874 9.14373 43.9999 15.125C37.8124 9.14373 31.6936 5.56873 26.8811 5.56873C25.2311 5.56873 23.7874 5.91248 22.4812 6.66873C18.0812 9.21248 16.4999 15.6062 17.9437 24.6125C18.2187 26.1937 18.5624 27.8437 18.9749 29.4937C17.3249 29.975 15.7437 30.4562 14.2312 31.075C5.6374 34.375 0.962402 38.9125 0.962402 44C0.962402 49.0875 5.70615 53.625 14.2312 56.925C15.7437 57.475 17.3249 58.025 18.9749 58.5062C18.5624 60.1562 18.2187 61.8062 17.9437 63.3875C16.4999 72.4625 18.0812 78.8562 22.4812 81.3312C23.7874 82.0875 25.2311 82.4312 26.8811 82.4312C31.7624 82.4312 37.8812 78.8562 43.9999 72.875C50.1874 78.8562 56.3062 82.4312 61.1187 82.4312C62.7687 82.4312 64.2124 82.0875 65.5187 81.3312C69.9187 78.7875 71.4999 72.3937 70.0562 63.3875C69.7812 61.8062 69.4374 60.1562 69.0249 58.5062C70.6749 58.025 72.2562 57.5437 73.7687 56.925C82.3624 53.625 87.0374 49.0875 87.0374 44C87.0374 38.9125 82.3624 34.375 73.7687 31.075ZM63.5937 10.1062C66.4124 11.7562 67.3749 16.8437 66.2062 24.0625C65.9999 25.5062 65.6562 27.0187 65.2437 28.6C61.6687 27.775 57.8874 27.225 53.8999 26.8812C51.5624 23.5812 49.1562 20.625 46.7499 17.9437C51.8374 12.925 56.9937 9.48748 61.1874 9.48748C62.0812 9.48748 62.9062 9.69373 63.5937 10.1062ZM55.8937 50.875C54.6562 53.075 53.2124 55.275 51.6999 57.475C49.1562 57.6812 46.6124 57.75 43.9999 57.75C41.3187 57.75 38.7749 57.6812 36.2999 57.475C34.7874 55.275 33.4124 53.075 32.1749 50.875C30.8687 48.6062 29.6312 46.2687 28.5312 44C29.6312 41.7312 30.8687 39.3937 32.1749 37.125C33.4124 34.925 34.8562 32.725 36.3687 30.525C38.9124 30.3187 41.4562 30.25 44.0686 30.25C46.7499 30.25 49.2937 30.3187 51.7687 30.525C53.2812 32.725 54.6562 34.925 55.8937 37.125C57.1999 39.3937 58.4374 41.7312 59.5374 44C58.3686 46.2687 57.1999 48.5375 55.8937 50.875ZM61.5999 48.6062C62.6311 51.0125 63.4562 53.35 64.2124 55.6875C61.8749 56.2375 59.3999 56.65 56.7874 56.9937C57.6124 55.6875 58.5061 54.3125 59.2624 52.8687C60.0874 51.425 60.8437 49.9812 61.5999 48.6062ZM43.9999 67.2375C42.3499 65.45 40.7687 63.525 39.2561 61.5312C40.8374 61.6 42.4187 61.6687 43.9999 61.6687C45.5812 61.6687 47.1624 61.6 48.7437 61.5312C47.2312 63.525 45.6499 65.45 43.9999 67.2375ZM31.2124 56.925C28.5999 56.5812 26.1249 56.1687 23.7874 55.6187C24.5436 53.35 25.3687 50.9437 26.3999 48.5375C27.1562 49.9125 27.9124 51.3562 28.7374 52.7312C29.5624 54.2437 30.3874 55.55 31.2124 56.925ZM26.3999 39.3937C25.3687 36.9875 24.5436 34.65 23.7874 32.3125C26.1249 31.7625 28.5999 31.35 31.2124 31.0062C30.3874 32.3125 29.4937 33.6875 28.7374 35.1312C27.9124 36.575 27.1562 38.0187 26.3999 39.3937ZM43.9999 20.7625C45.6499 22.55 47.2312 24.475 48.7437 26.4687C47.1624 26.4 45.5812 26.3312 43.9999 26.3312C42.4187 26.3312 40.8374 26.4 39.2561 26.4687C40.7687 24.475 42.3499 22.55 43.9999 20.7625ZM59.2624 35.2L56.7874 31.075C59.3999 31.4187 61.8749 31.8312 64.2124 32.3812C63.4562 34.65 62.6311 37.0562 61.5999 39.4625C60.8437 38.0187 60.0874 36.575 59.2624 35.2ZM21.7937 24.0625C20.6249 16.8437 21.5874 11.7562 24.4062 10.1062C25.0937 9.69373 25.9187 9.48748 26.8124 9.48748C30.9374 9.48748 36.0937 12.8562 41.2499 17.9437C38.8437 20.5562 36.4374 23.5812 34.0999 26.8812C30.1124 27.225 26.3312 27.8437 22.7562 28.6C22.3437 27.0187 22.0687 25.5062 21.7937 24.0625ZM4.8124 44C4.8124 40.7687 8.73115 37.3312 15.6062 34.7875C16.9812 34.2375 18.4937 33.7562 20.0062 33.3437C21.1062 36.7812 22.4811 40.425 24.1311 44.0687C22.4811 47.7125 21.0374 51.2875 20.0062 54.725C10.5187 51.975 4.8124 47.85 4.8124 44ZM24.4062 77.8937C21.5874 76.2437 20.6249 71.1562 21.7937 63.9375C21.9999 62.4937 22.3437 60.9812 22.7562 59.4C26.3312 60.225 30.1124 60.775 34.0999 61.1187C36.4374 64.4187 38.8437 67.375 41.2499 70.0562C36.1624 75.075 31.0062 78.5125 26.8124 78.5125C25.9187 78.5125 25.0937 78.3062 24.4062 77.8937ZM66.2062 63.9375C67.3749 71.1562 66.4124 76.2437 63.5937 77.8937C62.9062 78.3062 62.0812 78.5125 61.1874 78.5125C57.0624 78.5125 51.9062 75.1437 46.7499 70.0562C49.1562 67.4437 51.5624 64.4187 53.8999 61.1187C57.8874 60.775 61.6687 60.1562 65.2437 59.4C65.6562 60.9812 65.9312 62.4937 66.2062 63.9375ZM72.3937 53.2125C71.0187 53.7625 69.5061 54.2437 67.9937 54.6562C66.8937 51.2187 65.5187 47.575 63.8687 43.9312C65.5187 40.2875 66.9624 36.7125 67.9937 33.275C77.4812 36.025 83.1874 40.15 83.1874 44C83.1874 47.2312 79.1999 50.6687 72.3937 53.2125Z" fill="#61DAFB"/>
</svg>
