<svg width="88" height="88" viewBox="0 0 88 88" fill="none" xmlns="http://www.w3.org/2000/svg">
<path d="M0 43.9999C0 56.7826 19.6996 67.146 44 67.146C68.3004 67.146 88 56.7826 88 43.9999C88 31.2173 68.2997 20.8539 44 20.8539C19.6996 20.8539 0 31.2173 0 43.9999Z" fill="url(#paint0_radial_5_966)"/>
<path d="M44 65.4273C67.3509 65.4273 86.2812 55.8332 86.2812 43.9999C86.2812 32.1653 67.3509 22.5726 44 22.5726C20.6491 22.5726 1.71875 32.1653 1.71875 43.9999C1.71875 55.8332 20.6491 65.4273 44 65.4273Z" fill="#777BB3"/>
<path d="M23.9059 46.6564C25.8261 46.6564 27.2588 46.3024 28.1656 45.6046C29.0635 44.9129 29.6829 43.716 30.0081 42.0468C30.3106 40.4861 30.1951 39.3971 29.6644 38.8086C29.1226 38.2078 27.9504 37.9032 26.1808 37.9032H23.1118L21.4116 46.6564H23.9059ZM13.8691 57.4385C13.7986 57.4384 13.7291 57.4227 13.6655 57.3926C13.6019 57.3625 13.5457 57.3186 13.501 57.2642C13.4563 57.2098 13.4242 57.1462 13.407 57.0779C13.3898 57.0096 13.388 56.9383 13.4016 56.8693L17.9095 33.6744C17.9308 33.566 17.989 33.4683 18.0743 33.3979C18.1595 33.3276 18.2665 33.289 18.377 33.2887H28.0941C31.148 33.2887 33.4209 34.1178 34.8502 35.7534C36.2857 37.3965 36.7298 39.6955 36.1681 42.5837C35.9392 43.76 35.5459 44.8524 34.9994 45.8314C34.4304 46.8384 33.7045 47.7482 32.8489 48.5264C31.7963 49.5109 30.6049 50.2259 29.3103 50.646C28.0371 51.0613 26.4008 51.2716 24.4497 51.2716H20.5144L19.3911 57.0521C19.3698 57.1609 19.3115 57.259 19.2259 57.3294C19.1404 57.3999 19.033 57.4385 18.9222 57.4385H13.8691Z" fill="black"/>
<path d="M23.5056 38.3804H26.1806C28.3167 38.3804 29.0585 38.8492 29.3108 39.129C29.7281 39.5924 29.8079 40.5707 29.5384 41.956C29.2366 43.5077 28.6769 44.6084 27.8746 45.2258C27.0538 45.8583 25.7173 46.1787 23.9057 46.1787H21.9903L23.5056 38.3804ZM28.0939 32.8116H18.3775C18.1559 32.8116 17.9412 32.8886 17.7702 33.0295C17.5991 33.1703 17.4823 33.3662 17.4398 33.5837L12.9318 56.7792C12.9052 56.9174 12.9094 57.0597 12.9442 57.1961C12.9789 57.3324 13.0434 57.4594 13.1329 57.568C13.2224 57.6765 13.3348 57.764 13.462 57.8241C13.5892 57.8842 13.7282 57.9155 13.8689 57.9157H18.922C19.1436 57.9155 19.3582 57.8383 19.5291 57.6973C19.7 57.5563 19.8167 57.3604 19.8591 57.1429L20.9075 51.7488H24.4488C26.4508 51.7488 28.1366 51.5302 29.4586 51.0998C30.8178 50.6584 32.0684 49.9097 33.1753 48.8743C34.0665 48.0626 34.8228 47.1141 35.4158 46.0645C35.9871 45.0422 36.3983 43.901 36.6361 42.6745C37.2274 39.6337 36.7468 37.1992 35.2089 35.4392C33.6854 33.695 31.2915 32.8109 28.0939 32.8109V32.8116ZM20.8319 47.1329H23.9057C25.9428 47.1329 27.4601 46.75 28.4569 45.9814C29.4545 45.2141 30.1262 43.9326 30.4768 42.1375C30.8103 40.4133 30.6583 39.1971 30.0196 38.4883C29.3796 37.7802 28.1008 37.4254 26.1806 37.4254H22.7184L20.8319 47.1329ZM28.0946 33.7645C31.0179 33.7645 33.1498 34.5324 34.4904 36.0662C35.8311 37.6007 36.2339 39.7423 35.7004 42.4916C35.4791 43.6246 35.1071 44.66 34.5833 45.5977C34.058 46.5368 33.3733 47.3948 32.5269 48.1738C31.5177 49.1177 30.3978 49.7908 29.1637 50.1916C27.9303 50.5931 26.3587 50.7932 24.4495 50.7932H20.121L18.9227 56.96H13.8696L18.3782 33.7645H28.0946Z" fill="white"/>
<path d="M47.7532 51.2716C47.6827 51.2717 47.6131 51.2562 47.5494 51.2262C47.4856 51.1962 47.4293 51.1524 47.3845 51.0981C47.3396 51.0437 47.3074 50.9801 47.2901 50.9118C47.2728 50.8435 47.2708 50.7722 47.2843 50.7031L49.278 40.4401C49.4685 39.4638 49.4217 38.764 49.1474 38.467C48.979 38.2861 48.4743 37.983 46.9818 37.983H43.3683L40.8617 50.886C40.8402 50.9946 40.7816 51.0924 40.6959 51.1626C40.6103 51.2329 40.5029 51.2711 40.3921 51.2709H35.3802C35.3098 51.271 35.2403 51.2555 35.1766 51.2255C35.1129 51.1956 35.0565 51.1519 35.0117 51.0976C34.9668 51.0434 34.9345 50.9799 34.917 50.9117C34.8996 50.8434 34.8974 50.7722 34.9107 50.7031L39.4193 27.5075C39.4406 27.3989 39.4991 27.301 39.5846 27.2306C39.6701 27.1603 39.7774 27.1218 39.8882 27.1218H44.9C44.9704 27.1218 45.04 27.1373 45.1037 27.1673C45.1674 27.1972 45.2237 27.2409 45.2686 27.2952C45.3135 27.3494 45.3458 27.4129 45.3632 27.4811C45.3807 27.5493 45.3829 27.6206 45.3696 27.6897L44.282 33.2887H48.1684C51.1295 33.2887 53.137 33.8098 54.3064 34.8844C55.4978 35.9796 55.8705 37.7306 55.4119 40.0908L53.3143 50.886C53.2929 50.9945 53.2344 51.0922 53.1489 51.1624C53.0633 51.2326 52.9561 51.271 52.8455 51.2709L47.7532 51.2716Z" fill="black"/>
<path d="M44.9007 26.644H39.8881C39.6665 26.6441 39.4517 26.7212 39.2806 26.8622C39.1095 27.0032 38.9928 27.1992 38.9504 27.4168L34.4424 50.6117C34.4157 50.7499 34.4198 50.8923 34.4545 51.0287C34.4892 51.1652 34.5537 51.2923 34.6432 51.4009C34.7327 51.5095 34.8451 51.5971 34.9724 51.6572C35.0997 51.7173 35.2387 51.7486 35.3795 51.7488H40.3921C40.6137 51.7487 40.8285 51.6716 40.9996 51.5307C41.1707 51.3897 41.2874 51.1936 41.3298 50.976L43.7615 38.4601H46.9804C48.4709 38.4601 48.7844 38.7784 48.7961 38.7929C48.8868 38.8891 49.0058 39.3394 48.8091 40.3494L46.8154 50.6117C46.7886 50.7499 46.7928 50.8924 46.8275 51.0289C46.8623 51.1654 46.9267 51.2925 47.0163 51.4012C47.106 51.5098 47.2185 51.5973 47.3458 51.6574C47.4732 51.7175 47.6123 51.7487 47.7531 51.7488H52.8461C53.0677 51.7486 53.2823 51.6714 53.4532 51.5304C53.6242 51.3895 53.7408 51.1935 53.7832 50.976L55.8808 40.1823C56.3723 37.6482 55.9516 35.7479 54.6295 34.5331C53.3673 33.374 51.2539 32.8109 48.1684 32.8109H44.8615L45.8384 27.7819C45.8653 27.6435 45.8612 27.501 45.8266 27.3644C45.7919 27.2278 45.7274 27.1006 45.6378 26.9919C45.5482 26.8832 45.4356 26.7956 45.3082 26.7354C45.1808 26.6753 45.0416 26.6441 44.9007 26.644ZM44.9007 27.5997L43.7024 33.7652H48.1684C50.9782 33.7652 52.9169 34.256 53.9826 35.2364C55.0503 36.2168 55.3693 37.8042 54.9437 40.0008L52.8454 50.7939H47.7531L49.7476 40.5309C49.9744 39.3635 49.8906 38.5674 49.4966 38.1425C49.1027 37.7183 48.2639 37.5059 46.9818 37.5059H42.9743L40.3921 50.7932H35.3788L39.8874 27.5976H44.9007V27.5997Z" fill="white"/>
<path d="M63.3434 46.6564C65.2636 46.6564 66.697 46.3024 67.6045 45.6046C68.501 44.9129 69.1212 43.716 69.4464 42.0468C69.7488 40.4861 69.634 39.3971 69.1026 38.8086C68.5609 38.2078 67.3887 37.9032 65.619 37.9032H62.5507L60.8492 46.6564H63.3434ZM53.3087 57.4385C53.2381 57.4386 53.1685 57.4231 53.1047 57.393C53.0408 57.363 52.9845 57.3192 52.9397 57.2647C52.8948 57.2103 52.8626 57.1466 52.8453 57.0782C52.8281 57.0098 52.8262 56.9385 52.8398 56.8693L57.3477 33.6744C57.3691 33.5657 57.4275 33.4679 57.513 33.3975C57.5986 33.3272 57.7059 33.2887 57.8166 33.2887H67.533C70.5869 33.2887 72.8598 34.1178 74.2884 35.7534C75.7246 37.3965 76.168 39.6955 75.6063 42.5837C75.3917 43.7214 74.9974 44.8177 74.4383 45.8314C73.8691 46.8383 73.1432 47.748 72.2878 48.5264C71.2359 49.5109 70.0431 50.2259 68.7492 50.646C67.476 51.0613 65.8397 51.2716 63.8879 51.2716H59.9534L58.8307 57.0521C58.8094 57.161 58.751 57.2592 58.6653 57.3297C58.5796 57.4002 58.4721 57.4386 58.3611 57.4385H53.3087Z" fill="black"/>
<path d="M62.944 38.3804H65.6191C67.7552 38.3804 68.497 38.8492 68.7486 39.129C69.168 39.5924 69.2464 40.5707 68.9775 41.956C68.675 43.5077 68.1154 44.6084 67.3131 45.2258C66.4915 45.8583 65.155 46.1787 63.3442 46.1787H61.4288L62.944 38.3804ZM67.5324 32.8116H57.816C57.5945 32.8118 57.38 32.8889 57.2091 33.0297C57.0382 33.1705 56.9215 33.3663 56.8789 33.5837L52.3703 56.7792C52.3437 56.9174 52.3479 57.0598 52.3827 57.1962C52.4175 57.3326 52.482 57.4597 52.5716 57.5683C52.6612 57.6768 52.7736 57.7643 52.9009 57.8243C53.0283 57.8844 53.1673 57.9156 53.308 57.9157H58.3612C58.5827 57.9155 58.7973 57.8383 58.9683 57.6973C59.1392 57.5563 59.2558 57.3604 59.2982 57.1429L60.3467 51.7488H63.8873C65.8886 51.7488 67.575 51.5302 68.8964 51.0998C70.2563 50.6584 71.5069 49.9097 72.6144 48.8737C73.5054 48.0621 74.2614 47.1138 74.8543 46.0645C75.4263 45.0422 75.836 43.901 76.0746 42.6745C76.6658 39.6337 76.186 37.1992 74.6474 35.4392C73.1239 33.695 70.7307 32.8109 67.5317 32.8109L67.5324 32.8116ZM60.2704 47.1329H63.3435C65.3812 47.1329 66.8979 46.75 67.8961 45.9814C68.893 45.2141 69.5654 43.9326 69.9146 42.1375C70.2494 40.4133 70.0975 39.1971 69.4574 38.4883C68.818 37.7802 67.5386 37.4254 65.6191 37.4254H62.1575L60.2704 47.1329ZM67.5324 33.7645C70.455 33.7645 72.5883 34.5324 73.9282 36.0662C75.2689 37.6007 75.6724 39.7423 75.1375 42.4916C74.9175 43.6246 74.5449 44.66 74.021 45.5977C73.4965 46.5368 72.811 47.3948 71.964 48.1738C70.9555 49.1177 69.8348 49.7908 68.6008 50.1916C67.3681 50.5931 65.7972 50.7932 63.8873 50.7932H59.5595L58.3598 56.96H53.3067L57.8153 33.7645H67.5324Z" fill="white"/>
<defs>
<radialGradient id="paint0_radial_5_966" cx="0" cy="0" r="1" gradientUnits="userSpaceOnUse" gradientTransform="translate(26.4179 28.9911) scale(57.7784 57.7784)">
<stop stop-color="#AEB2D5"/>
<stop offset="0.3" stop-color="#AEB2D5"/>
<stop offset="0.75" stop-color="#484C89"/>
<stop offset="1" stop-color="#484C89"/>
</radialGradient>
</defs>
</svg>
