<svg width="88" height="88" viewBox="0 0 88 88" fill="none" xmlns="http://www.w3.org/2000/svg">
<path d="M44 1.76001C20.6712 1.76001 1.76001 20.6712 1.76001 44C1.76001 67.3288 20.6712 86.24 44 86.24C67.3288 86.24 86.24 67.3288 86.24 44C86.24 20.6712 67.3288 1.76001 44 1.76001ZM33.66 61.5076H25.1064V33.9812H33.66V61.5076ZM29.3304 30.602C26.6288 30.602 24.882 28.688 24.882 26.3208C24.882 23.9052 26.6816 22.0484 29.4404 22.0484C32.1992 22.0484 33.8888 23.9052 33.9416 26.3208C33.9416 28.688 32.1992 30.602 29.3304 30.602ZM64.9 61.5076H56.3464V46.2528C56.3464 42.702 55.1056 40.2908 52.0124 40.2908C49.6496 40.2908 48.246 41.9232 47.6256 43.494C47.3968 44.0528 47.3396 44.8448 47.3396 45.6324V61.5032H38.7816V42.7592C38.7816 39.3228 38.6716 36.4496 38.5572 33.9768H45.9888L46.3804 37.8004H46.552C47.6784 36.0052 50.4372 33.3564 55.0528 33.3564C60.6804 33.3564 64.9 37.1272 64.9 45.232V61.5076Z" fill="#1F497D"/>
</svg>
