<svg width="130" height="88" viewBox="0 0 130 88" fill="none" xmlns="http://www.w3.org/2000/svg">
<g clip-path="url(#clip0_5_991)">
<path d="M38.4097 58.0692L42.3331 70.7994C43.2146 73.6898 43.5823 75.7075 43.435 76.8576C45.5808 71.1106 47.0801 64.8477 47.9331 58.0692H52.6508C50.6223 69.1047 47.9467 77.1241 44.6257 82.1267C42.0381 85.9818 39.2035 87.9093 36.1167 87.9093C35.2936 87.9093 34.279 87.6606 33.075 87.1669V84.5068C33.6632 84.593 34.3534 84.6391 35.1471 84.6391C36.5872 84.6391 37.7478 84.24 38.6308 83.4434C39.6881 82.4729 40.2174 81.3821 40.2174 80.1731C40.2174 79.3475 39.8046 77.6533 38.9828 75.0905L33.5162 58.0692H38.4097ZM8.38203 50.2448L15.5683 72.1706H15.6127L22.843 50.2448H28.7504C30.0439 61.1184 30.8079 71.0675 31.0424 80.0856H26.062C25.8867 71.6555 25.4013 63.7284 24.6076 56.3029H24.5642L16.9801 80.0856H13.1872L5.64899 56.3029H5.60461C5.04534 63.4342 4.69334 71.3612 4.54659 80.0856H0.00488281C0.298384 69.4751 1.03289 59.5291 2.20841 50.2448H8.38203Z" fill="#00758F"/>
<path d="M88.8869 49.802C96.617 49.802 100.482 54.7406 100.482 64.613C100.482 69.9777 99.3198 74.03 96.9973 76.7676C96.5787 77.2678 96.116 77.7 95.6288 78.1004L101.099 80.8052L101.094 80.805L99.1516 84.1591L92.0277 80.0024C90.8468 80.3521 89.5475 80.5269 88.1317 80.5269C84.3361 80.5269 81.5009 79.4207 79.6265 77.2111C77.5689 74.7668 76.5407 70.9187 76.5407 65.6735C76.5407 60.3391 77.7011 56.3022 80.0244 53.561C82.1404 51.0537 85.0951 49.802 88.8869 49.802ZM65.2151 49.8451C67.9779 49.8451 70.4901 50.5844 72.7529 52.0577L71.6036 54.6188C69.6673 53.7958 67.7583 53.3825 65.8758 53.3825C64.3483 53.3825 63.1712 53.7502 62.3507 54.49C61.5257 55.2232 61.0153 56.1668 61.0153 57.3171C61.0153 59.0846 62.2746 60.6174 64.5996 61.9125C65.3614 62.3288 66.1204 62.75 66.8768 63.176L67.0503 63.2736L67.1373 63.3225L67.311 63.4201L67.3977 63.469L67.5712 63.5668C69.3312 64.559 70.9873 65.5061 70.9873 65.5061C73.3121 67.1564 74.471 68.9159 74.471 71.8139C74.471 74.3447 73.5436 76.4221 71.6949 78.0477C69.8448 79.666 67.3594 80.4774 64.2469 80.4774C61.3358 80.4774 58.5145 79.5435 55.7817 77.6912L57.0601 75.1279C59.4119 76.3067 61.5401 76.8954 63.4511 76.8954C65.2434 76.8954 66.6463 76.4953 67.6612 75.705C68.6741 74.909 69.281 73.7988 69.281 72.391C69.281 70.6192 68.0485 69.1045 65.7875 67.8339C65.0798 67.4429 64.3742 67.0482 63.6707 66.6496L63.4975 66.5515C63.1793 66.3717 62.8588 66.1897 62.5449 66.0114L62.3747 65.9146C60.8479 65.0462 59.5279 64.2875 59.5279 64.2875C57.2677 62.6341 56.1342 60.8603 56.1342 57.9373C56.1342 55.52 56.9794 53.5661 58.6673 52.0797C60.3593 50.59 62.5421 49.8451 65.2151 49.8451ZM109.567 50.2445V76.4146H118.956V80.0854H104.805V50.2448L109.567 50.2445ZM124.174 76.4259V77.0462H123.142V80.0821H122.352V77.0462H121.28V76.4259H124.174ZM126.08 76.4259L127.071 78.9182L127.982 76.4259H129.101V80.0821H128.357V77.2996L127.32 80.0821H126.784L125.746 77.2996H125.706V80.0821H125.002V76.4259H126.08ZM88.4007 53.4718C83.8454 53.4718 81.5665 57.2313 81.5665 64.7454C81.5665 69.0495 82.1704 72.1707 83.3759 74.116C84.4924 75.9163 86.2411 76.8147 88.6221 76.8147C93.1775 76.8147 95.4561 73.0259 95.4561 65.4519C95.4561 61.208 94.8522 58.1136 93.6482 56.1673C92.5304 54.3709 90.7825 53.4718 88.401 53.4718" fill="#F29111"/>
<path d="M76.4609 1.84903C77.972 -1.86412 83.2558 0.947845 85.3063 2.2449C85.8088 2.56942 86.3852 3.25501 86.9614 3.50842C87.8603 3.54372 88.7584 3.61407 89.6588 3.65164C91.3477 4.04852 92.9297 4.37279 94.2606 5.13074C100.445 8.77304 104.471 12.4847 108.177 18.6154C108.968 19.914 109.364 21.3192 110.011 22.7244C110.908 24.819 111.917 27.0178 112.959 28.9984C113.425 29.9374 113.786 30.9816 114.434 31.7746C114.687 32.1372 115.405 32.2441 115.835 32.4607C117.022 33.0752 118.46 33.5416 119.577 34.2628C121.662 35.5629 123.678 37.1121 125.51 38.6981C126.193 39.3103 126.659 40.1769 127.309 40.8245V41.1512C126.732 41.3285 126.156 41.51 125.58 41.6555C124.322 41.9788 123.207 41.9057 121.986 42.2292C121.231 42.448 120.295 42.7368 119.503 42.8101L119.577 42.8838C120.042 44.2138 122.561 45.2956 123.712 46.0911C125.111 47.1007 126.408 48.3251 127.451 49.7314C127.811 50.0902 128.172 50.4167 128.53 50.7745C128.781 51.1371 128.851 51.6061 129.105 51.9293V52.0388C128.824 51.9397 128.622 51.7506 128.431 51.5529L128.317 51.4336C128.202 51.3151 128.087 51.1986 127.956 51.1026C127.162 50.5604 126.374 49.9119 125.58 49.4079C124.215 48.542 122.633 48.0394 121.231 47.1703C120.439 46.6657 119.684 46.0911 118.929 45.5137C118.244 45.0076 117.49 44.0358 117.06 43.3147C116.807 42.9163 116.772 42.448 116.482 42.1598C116.534 41.6785 116.975 41.5355 117.42 41.418L117.523 41.391C117.676 41.3512 117.826 41.3114 117.958 41.2587C119.827 40.4649 122.056 40.1769 124.934 40.249C124.825 39.5264 123.027 38.626 122.453 38.1933C121.301 37.3627 120.08 36.4961 118.858 35.7401C118.21 35.3442 117.094 35.0553 116.376 34.7318C115.405 34.3349 113.247 33.9383 112.709 33.1823C111.795 31.9907 111.138 30.5693 110.501 29.1336L110.327 28.7417C110.27 28.6111 110.212 28.4806 110.154 28.3501C109.4 26.6212 108.464 24.8185 107.709 23.0482C107.314 22.1846 107.133 21.4266 106.7 20.5983C104.076 15.5155 100.192 11.26 95.4835 8.26723C93.9361 7.29343 92.2106 6.39225 90.3059 5.77978C89.2264 5.45375 87.9309 5.63403 86.7808 5.3839H86.0239C85.3779 5.20185 84.8385 4.51701 84.3345 4.15594C83.2212 3.39999 82.1062 2.89242 80.7749 2.35307C80.3084 2.13673 78.9763 1.63293 78.5113 2.02956C78.2234 2.10193 78.0774 2.21061 78.0065 2.49957C77.7201 2.93075 77.972 3.58028 78.1503 3.97792C78.6904 5.13024 79.4448 5.81508 80.1296 6.78888C80.7388 7.65249 81.4955 8.62629 81.9275 9.56529C82.8594 11.5837 83.2933 13.8201 84.157 15.8383C84.4772 16.5972 84.9838 17.4608 85.45 18.1454C85.8451 18.6888 86.5635 19.0816 86.7808 19.7695C87.214 20.4907 86.1323 22.8702 85.8819 23.6259C84.9452 26.5828 85.1267 30.6931 86.2054 33.2562L86.2629 33.3914L86.3204 33.5283C86.7143 34.467 87.1358 35.4779 88.183 35.7404C88.2551 35.6688 88.183 35.7063 88.326 35.6688C88.5794 33.6849 88.6508 31.7743 89.3346 30.2221C89.7297 29.2516 90.5187 28.5655 91.0595 27.7732C91.4201 27.9891 91.4201 28.6399 91.6349 29.0705C92.1029 30.1875 92.6055 31.4122 93.1824 32.5325C94.3665 34.8397 95.6988 37.0765 97.2084 39.0947C97.714 39.8156 98.4314 40.6091 99.0784 41.2584C99.3666 41.5098 99.6893 41.655 99.9059 41.9785H99.9765V42.0875C98.8978 41.6898 98.214 40.5738 97.3537 39.9223C95.7339 38.6976 93.7941 36.8584 92.6776 35.0936C92.2106 34.0805 91.7058 33.1094 91.2025 32.1014V32.0285C90.9874 32.3164 91.0595 32.6024 90.9519 33.0381C90.4849 34.8397 90.8445 36.895 89.2264 37.543C87.3923 38.302 86.0241 36.3183 85.45 35.4169C83.6153 32.4249 83.1128 27.3773 84.4066 23.3029C84.694 22.4009 84.7331 21.3192 85.2349 20.5991C85.1265 19.948 84.6247 19.77 84.3345 19.3711C83.8312 18.6893 83.4003 17.895 83.0061 17.1378C82.2492 15.6587 81.7106 13.8914 81.136 12.3051C80.8833 11.6574 80.8109 11.0071 80.559 10.3939C80.1294 9.45787 79.3374 8.51887 78.7264 7.69081C77.8991 6.50067 75.4896 4.19401 76.4609 1.84903ZM88.2544 8.91298C88.3504 9.0093 88.4664 9.09352 88.5865 9.17648L88.7312 9.27582C88.9241 9.40946 89.1109 9.55016 89.2254 9.74179C89.4069 9.99545 89.4407 10.2458 89.6581 10.5C89.6581 11.3666 89.4069 11.9428 88.8999 12.3019C88.8999 12.3019 88.8653 12.3397 88.8298 12.375C88.5423 11.7973 88.2904 11.2227 88.001 10.6455C87.6444 10.1417 87.1404 9.74205 86.8499 9.16639H86.7801V9.09402C87.214 8.98686 87.6444 8.91298 88.2544 8.91298Z" fill="#00758F"/>
</g>
<defs>
<clipPath id="clip0_5_991">
<rect width="129.11" height="88" fill="white"/>
</clipPath>
</defs>
</svg>
