<svg width="88" height="88" viewBox="0 0 88 88" fill="none" xmlns="http://www.w3.org/2000/svg">
<g clip-path="url(#clip0_5_995)">
<path d="M85.7567 40.1349L47.8644 2.24402C45.6837 0.0618907 42.1444 0.0618907 39.9603 2.24402L32.0925 10.1131L42.0736 20.0943C44.3939 19.3112 47.0532 19.8365 48.9019 21.6851C50.7602 23.5455 51.2813 26.2275 50.479 28.5553L60.0985 38.1755C62.4257 37.3732 65.1118 37.8916 66.9694 39.7533C69.5681 42.35 69.5681 46.5596 66.9694 49.1576C66.3518 49.7755 65.6186 50.2656 64.8115 50.6001C64.0045 50.9345 63.1394 51.1066 62.2659 51.1066C61.3923 51.1066 60.5272 50.9345 59.7202 50.6001C58.9131 50.2656 58.1799 49.7755 57.5623 49.1576C56.6345 48.2292 56.002 47.0471 55.7445 45.76C55.487 44.4729 55.6159 43.1384 56.1151 41.9245L47.1446 32.954L47.1433 56.5634C47.7941 56.8839 48.3883 57.3084 48.9026 57.8201C51.4999 60.4168 51.4999 64.625 48.9026 67.2272C46.3045 69.8239 42.0936 69.8239 39.4983 67.2272C36.9009 64.6257 36.9009 60.4175 39.4983 57.8201C40.1205 57.1969 40.8607 56.7037 41.6756 56.3695V32.5415C40.8601 32.2082 40.1197 31.7147 39.4983 31.0901C37.5306 29.1239 37.0569 26.2364 38.0662 23.8191L28.226 13.979L2.24401 39.9596C1.19579 41.0081 0.606934 42.4301 0.606934 43.9127C0.606934 45.3953 1.19579 46.8173 2.24401 47.8658L40.1369 85.7567C42.3191 87.9388 45.8569 87.9388 48.0425 85.7567L85.7574 48.0418C86.8054 46.993 87.394 45.5709 87.3939 44.0882C87.3938 42.6055 86.8049 41.1836 85.7567 40.1349Z" fill="#F34F29"/>
</g>
<defs>
<clipPath id="clip0_5_995">
<rect width="88" height="88" fill="white"/>
</clipPath>
</defs>
</svg>
