<svg width="140" height="49" viewBox="0 0 140 49" fill="none" xmlns="http://www.w3.org/2000/svg">
<g clip-path="url(#clip0_5_997)">
<path d="M59.9146 41.0059C59.9146 41.0059 66.0859 40.4791 66.0859 32.5449C66.0859 24.6105 58.6101 23.8733 58.6101 23.8733H45.1394V48.9049H51.91V42.8668L57.7636 48.9052H67.7784L59.9146 41.0059ZM57.3053 35.8799H51.91V30.1575H57.3403C57.3403 30.1575 58.8567 30.7191 58.8567 33.0012C58.8567 35.2832 57.3053 35.8799 57.3053 35.8799ZM82.8005 24.0491H75.9241C71.0226 24.0491 69.3654 28.4728 69.3654 30.5789V48.9052H76.2415V44.517H82.6947V48.9052H89.3595V30.5792C89.3595 25.2426 84.4933 24.0491 82.8005 24.0491ZM82.6947 37.4251H76.2063V31.3515C76.2063 31.3515 76.2063 29.9822 78.3573 29.9822H80.72C82.6242 29.9822 82.6594 31.3515 82.6594 31.3515V37.4251H82.6947ZM92.4979 24.0491H99.6563V48.9052H92.4979V24.0491ZM109.706 42.4805V24.0489H102.583V48.9047H119.333V42.4802L109.706 42.4805ZM121.696 42.5507V48.9052H133.227C135.59 48.9052 139.645 47.185 139.786 42.3751V39.9178C139.786 35.81 136.401 33.3877 133.227 33.3877H127.479V30.4387H138.869V24.0489H127.937C125.116 24.0489 121.343 26.3658 121.343 30.684V32.8958C121.343 37.2141 125.081 39.4259 127.937 39.4259C135.872 39.4613 126.033 39.4259 133.368 39.4259V42.5156L121.696 42.5507Z" fill="#CC0000"/>
<path d="M2.47095 48.8699H30.3289C30.3289 48.8699 25.0041 24.6808 42.6358 14.8857C46.4794 13.025 58.7156 6.07382 78.7453 20.819C79.3799 20.2923 79.9795 19.8709 79.9795 19.8709C79.9795 19.8709 61.6426 1.64994 41.2252 3.68643C30.9635 4.59919 18.3393 13.9027 10.9341 26.1905C3.52884 38.4781 2.47095 48.8699 2.47095 48.8699ZM60.5142 5.65242L60.6553 3.30015C60.3378 3.12457 59.4563 2.70317 57.2347 2.07134L57.0936 4.38849C58.2472 4.77311 59.3879 5.19464 60.5142 5.65242ZM57.1642 13.095L57.0231 15.3071C58.1868 15.3422 59.3505 15.4826 60.5142 15.7282L60.6553 13.5515C59.4563 13.3059 58.2926 13.1652 57.1642 13.095ZM44.1167 2.14184H44.4695L43.764 0C42.6708 0 41.5424 0.0702333 40.379 0.2107L41.0489 2.28204C42.0715 2.17669 43.0941 2.14184 44.1167 2.14184ZM45.8092 15.0612L46.6205 17.4837C47.6431 16.9921 48.6657 16.571 49.6884 16.2549L48.9127 13.9378C47.855 14.2453 46.8183 14.6206 45.8092 15.0612ZM29.8001 5.82801L28.2131 3.40523C27.3315 3.86174 26.4145 4.35338 25.4624 4.91497L27.0846 7.37259C28.0014 6.811 28.8833 6.28425 29.8001 5.82801ZM37.0287 21.6264L38.7212 24.154C39.3205 23.2764 40.026 22.469 40.802 21.6615L39.215 19.2742C38.4224 19.9969 37.6911 20.7838 37.0287 21.6264ZM31.9156 32.9307L34.7718 35.1776C34.9129 33.8084 35.1595 32.4391 35.5122 31.0701L32.9732 29.069C32.5149 30.368 32.1977 31.6668 31.9156 32.9307ZM16.4699 16.2544L13.9661 14.078C13.0493 14.9556 12.1678 15.8333 11.3565 16.7109L14.0717 19.0281C14.8127 18.0802 15.6234 17.1323 16.4696 16.2547M5.82016 31.9483L1.76468 30.4736C1.09561 31.9831 0.355163 33.7387 0.00244141 34.6866L4.05765 36.1609C4.51619 34.9672 5.25663 33.247 5.82098 31.948M31.3865 41.8482C31.4573 43.7088 31.6337 45.2183 31.8097 46.2718L36.0416 47.7813C35.7241 46.412 35.4067 44.8674 35.1951 43.2175L31.3865 41.8482Z" fill="#CC0000"/>
</g>
<defs>
<clipPath id="clip0_5_997">
<rect width="140" height="49" fill="white"/>
</clipPath>
</defs>
</svg>
